<?xml version="1.0" encoding="UTF-8" standalone="no"?>
<!-- Created with Inkscape (http://www.inkscape.org/) -->

<svg
   xmlns:dc="http://purl.org/dc/elements/1.1/"
   xmlns:cc="http://creativecommons.org/ns#"
   xmlns:rdf="http://www.w3.org/1999/02/22-rdf-syntax-ns#"
   xmlns:svg="http://www.w3.org/2000/svg"
   xmlns="http://www.w3.org/2000/svg"
   xmlns:sodipodi="http://sodipodi.sourceforge.net/DTD/sodipodi-0.dtd"
   xmlns:inkscape="http://www.inkscape.org/namespaces/inkscape"
   width="790.96222"
   height="732.37006"
   id="svg2"
   version="1.1"
   inkscape:version="0.48.4 r9939"
   sodipodi:docname="me.svg">
  <defs
     id="defs4" />
  <sodipodi:namedview
     id="base"
     pagecolor="#ffffff"
     bordercolor="#666666"
     borderopacity="1.0"
     inkscape:pageopacity="0.0"
     inkscape:pageshadow="2"
     inkscape:zoom="0.35"
     inkscape:cx="410.71746"
     inkscape:cy="267.69825"
     inkscape:document-units="px"
     inkscape:current-layer="layer1"
     showgrid="false"
     inkscape:window-width="1366"
     inkscape:window-height="709"
     inkscape:window-x="0"
     inkscape:window-y="27"
     inkscape:window-maximized="1"
     fit-margin-top="0"
     fit-margin-left="0"
     fit-margin-right="0"
     fit-margin-bottom="0" />
  <metadata
     id="metadata7">
    <rdf:RDF>
      <cc:Work
         rdf:about="">
        <dc:format>image/svg+xml</dc:format>
        <dc:type
           rdf:resource="http://purl.org/dc/dcmitype/StillImage" />
        <dc:title></dc:title>
      </cc:Work>
    </rdf:RDF>
  </metadata>
  <g
     inkscape:label="Layer 1"
     inkscape:groupmode="layer"
     id="layer1"
     transform="translate(35.717457,-73.404642)">
    <path
       style="fill:#000000"
       d="m 489.02536,805.18939 c -2.736,-0.21105 -5.5485,-0.86003 -6.25,-1.4422 -0.7014,-0.58216 -1.2754,-0.64972 -1.2754,-0.15012 0,0.51253 -7.0811,0.85193 -16.25,0.77885 -16.8135,-0.134 -19.1949,-0.6234 -34.75,-7.14107 -1.9708,-0.82581 -2.0127,-0.83902 -5.5,-1.73571 -1.65,-0.42427 -6.375,-2.0473 -10.5,-3.60675 -4.125,-1.55944 -10.0742,-3.81 -13.2204,-5.00123 -3.1463,-1.19124 -7.8699,-3.69402 -10.4968,-5.56173 -2.627,-1.8677 -5.1202,-3.39583 -5.5405,-3.39583 -0.4202,0 -2.6716,-0.87214 -5.0032,-1.93809 -4.1441,-1.8947 -13.2401,-4.27842 -21.2391,-5.56599 -2.2,-0.35413 -4.9325,-1.24356 -6.0723,-1.97651 -1.1397,-0.73296 -3.9522,-1.8959 -6.25,-2.58431 -2.2977,-0.68842 -4.1777,-1.594 -4.1777,-2.0124 0,-0.4184 -1.9125,-1.22346 -4.25,-1.78902 -15.7547,-3.81185 -19.9631,-5.06189 -22.9251,-6.80949 -1.837,-1.08388 -6.9366,-3.20042 -11.3324,-4.70343 -10.187,-3.48311 -13.4925,-4.91991 -13.4925,-5.86487 0,-0.41574 -0.6646,-0.75589 -1.4769,-0.75589 -0.8123,0 -2.1891,-1.08684 -3.0595,-2.41521 -0.8703,-1.32836 -3.2432,-3.13055 -5.273,-4.00486 -2.0298,-0.87431 -4.4428,-2.12544 -5.3623,-2.78029 -2.7851,-1.98365 -9.3901,0.15319 -9.0947,2.94233 0.2698,2.54817 -2.9231,4.70323 -5.8387,3.94079 -1.8504,-0.48389 -10.6444,1.65121 -14.1313,3.43095 -0.955,0.48746 -2.4287,0.88629 -3.2747,0.88629 -0.8461,0 -1.9399,1.05606 -2.4306,2.3468 -2.4102,6.33935 -23.9192,6.94274 -41.6117,1.16733 -4.236,-1.38277 -9.3902,-2.51413 -11.4537,-2.51413 -4.4296,0 -26.3522,-5.37138 -32.327,-7.92063 -2.2912,-0.97759 -5.9648,-2.11168 -8.1636,-2.52019 -2.1987,-0.40851 -4.2237,-1.05115 -4.5,-1.4281 -1.9617,-2.67663 -24.7553,-12.33967 -25.6588,-10.87772 -0.9516,1.53972 -18.007303,0.0955 -20.638703,-1.74762 -1.1824,-0.82816 -2.6624,-1.50574 -3.2889,-1.50574 -0.6266,0 -4.239,-1.43665 -8.0275,-3.19256 -3.7886,-1.75591 -7.2176,-3.21841 -7.62,-3.25 -0.4025,-0.0316 -4.3923,-2.53244 -8.8664,-5.55744 -4.4741,-3.025 -8.8346,-5.95 -9.6901,-6.5 -8.1865,-5.26336 -18.1544,-15.93173 -22.8057,-24.40817 -1.1516,-2.0987 -3.227,-5.34042 -4.6119,-7.20383 -3.3839,-4.55303 -5.0141,-9.60863 -3.8187,-11.8424 1.1315,-2.11412 10.3151,-3.49561 13.1504,-1.97821 1.0307,0.55164 1.874,0.8187 1.874,0.59347 0,-0.61396 -6.6989,-17.10971 -8.9957,-22.15161 -1.1024,-2.41974 -2.0043,-4.85131 -2.0043,-5.40349 0,-1.16388 -6.2123,-6.10576 -7.6754,-6.10576 -0.5426,0 -1.5777,-1.10449 -2.3002,-2.45442 -0.7224,-1.34993 -3.836,-4.12851 -6.9189,-6.17463 -6.1753999,-4.0985 -28.70815,-26.5438 -29.66096,-29.54586 -0.32985,-1.03925 -1.72879,-3.10783 -3.10877,-4.59685 -1.37998,-1.48902 -3.1205,-4.06202 -3.86783,-5.71777 -0.74733,-1.65576 -2.02998,-4.13547 -2.85032,-5.51047 -6.2553,-10.48473 -8.04168,-19.90416 -3.5015,-18.46316 2.57281,0.81658 2.43854,-0.65932 -1.02389,-11.25475 -1.5993,-4.89405 -3.18432,-10.63809 -3.52227,-12.76455 -0.33794,-2.12645 -1.06779,-4.41252 -1.62187,-5.08014 -4.79362,-5.77596 6.39056,-17.01145 11.97322,-12.02815 3.10222,2.76916 15.0787401,0.96248 15.0787401,-2.27467 0,-3.37019 -3.8905401,-11.98001 -8.4204501,-18.63458 -2.99518,-4.4 -7.10158,-11.375 -9.12534,-15.5 -2.02377,-4.125 -4.28702,-8.74461 -5.02945,-10.26579 -3.59018,-7.35604 6.92556,-11.23005 13.26775,-4.88786 3.98906,3.98907 22.3074401,8.06824 22.3074401,4.96746 0,-0.4476 -0.3375,-0.831 -0.75,-0.85201 -3.79209996,-0.19313 -16.5035101,-15.89305 -19.2812101,-23.81445 -3.43667,-9.80065 -1.84127,-24.46362 2.48128,-22.8049 0.71562,0.27461 2.4702301,-0.10725 3.8991301,-0.84857 1.4289,-0.74132 3.62239,-1.51323 4.87442,-1.71537 2.08608,-0.33678 1.96328,-0.55997 -1.46857,-2.66884 -3.03908,-1.86753 -3.63642,-2.73394 -3.16897,-4.5964 0.31681,-1.2623 0.0896,-2.59573 -0.505,-2.96319 -0.59457,-0.36746 -1.08103,-1.3637 -1.08103,-2.21387 0,-0.85017 -1.1250001,-3.78558 -2.5000001,-6.52314 -1.375,-2.73757 -2.5,-5.81925 -2.5,-6.84818 0,-2.25629 -2.04291,-6.96489 -3.02184,-6.96489 -1.2535,0 0.18681,-4.84098 1.87698,-6.30867 0.90467,-0.78559 3.53629,-1.66687 5.8480301,-1.9584 2.31175,-0.29153 5.53122,-1.4757 7.15438,-2.63149 1.6232,-1.15579 3.6692,-2.10144 4.5468,-2.10144 0.8776,0 1.5956,-0.39541 1.5956,-0.87868 0,-0.48327 1.4625,-1.48279 3.25,-2.22114 1.7875,-0.73836 4.8985999,-2.93045 6.9133999,-4.87133 2.0149,-1.94087 6.2265,-5.53221 9.3593,-7.98076 3.1327,-2.44855 6.255,-5.37355 6.9384,-6.5 5.3724,-8.85478 7.1718,-12.79855 8.1096,-17.77315 0.5936,-3.14879 0.7625,-6.07379 0.3754,-6.5 -0.387,-0.42622 -1.235,-5.94994 -1.8843,-12.27494 -0.6494,-6.325 -1.42,-13.44301 -1.7126,-15.81781 -0.8295,-6.73342 0.056,-8.68726 4.5446,-10.0322 2.1661,-0.64899 7.0711,-3.60042 10.8999,-6.55875 3.8289,-2.95833 7.916,-5.6817 9.0826,-6.05195 1.1665,-0.37025 4.886,-4.56385 8.2656,-9.31913 6.2563,-8.80298 7.5245,-15.77851 6.9491,-38.22016 -0.9807,-38.24549 4.4491,-50.28455 27.710503,-61.4408 6.4342,-3.08588 12.3735,-6.04629 13.1985,-6.5787 0.825,-0.53241 4.875,-2.75599 9,-4.94131 4.125,-2.18531 9.075,-4.83406 11,-5.88611 3.3101,-1.80903 6.0664,-3.09632 17.2391,-8.05133 2.6066,-1.15596 5.3925,-2.10175 6.191,-2.10175 0.7986,0 1.6905,-0.386 1.982,-0.85778 0.5558,-0.8992 10.9303,-3.52926 18.5495,-4.70249 2.4538,-0.37785 5.1538,-1.02609 6,-1.44053 0.8461,-0.41444 6.0384,-1.80071 11.5384,-3.0806 5.5,-1.27989 12.025,-3.09642 14.5,-4.03673 20.3836,-7.74418 36.3535,-14.18436 44.3398,-17.88083 3.566,-1.65057 6.7351,-3.001043 7.0424,-3.001043 0.3072,0 2.9344,-1.0722 5.8382,-2.38266 2.9038,-1.31047 6.4046,-2.72112 7.7796,-3.13478 1.375,-0.41367 2.725,-1.03676 3,-1.38465 0.275,-0.34788 2.525,-1.20787 5,-1.91108 2.475,-0.70321 5.9625,-1.70793 7.75,-2.2327 10.129,-2.97364 18.8023,-5.05922 35.25,-8.47619 4.125,-0.85696 10.2925,-2.21507 13.7056,-3.01802 3.413,-0.80296 7.7739,-1.45992 9.6909,-1.45992 1.9171,0 3.7415,-0.41426 4.0545,-0.92058 0.3129,-0.50632 4.0519,-0.74435 8.309,-0.52895 20.236,1.02388 27.9786,1.64938 30.74,2.48338 6.4758,1.95578 23.2429,6.18894 27.639,6.97794 2.5514,0.45792 5.4764,1.32804 6.5,1.9336 2.0945,1.23913 20.2521,7.80887 24.861,8.99518 1.65,0.4247 5.1375,1.73681 7.75,2.9158 11.9443,5.390313 13.9211,6.171983 17.8295,7.050153 2.2892,0.51435 4.6479,1.42081 5.2414,2.01434 0.5935,0.59353 2.3644,1.07914 3.9352,1.07914 7.9206,0 37.0484,18.61069 50.7439,32.422 11.2828,11.37809 17.3893,14.51692 25.3795,13.04532 6.2105,-1.14382 33.9646,0.26898 43.1205,2.19503 3.85,0.80989 9.5875,1.99513 12.75,2.63388 3.1625,0.63875 5.75,1.50841 5.75,1.93257 0,0.42416 1.0985,0.7712 2.441,0.7712 1.3426,0 2.7191,0.45 3.059,1 0.34,0.55 1.4032,1 2.3627,1 0.9596,0 3.9705,1.07942 6.691,2.39871 2.7205,1.31929 6.6338,2.92919 8.6963,3.57755 2.0625,0.64836 3.75,1.50734 3.75,1.90884 0,0.4015 1.8208,1.5333 4.0461,2.51511 2.2587,0.99653 7.2284,5.12284 11.25,9.34072 3.9622,4.15558 8.7789,9.17639 10.7039,11.15734 1.925,1.98095 4.7276,5.51423 6.228,7.85173 1.5004,2.3375 3.1879,4.25 3.75,4.25 0.5621,0 1.022,0.62103 1.022,1.38006 0,1.92918 7.7178,16.93983 9.9312,19.31566 2.277,2.44404 3.1633,5.18501 4.1404,12.80428 0.4232,3.3 1.5319,9.15 2.4637,13 0.9319,3.85 1.8195,9.025 1.9724,11.5 0.1529,2.475 0.7813,6.36698 1.3965,8.64884 0.6151,2.28187 1.5149,6.10687 1.9995,8.5 0.4846,2.39314 1.6488,7.72616 2.5871,11.85116 1.8184,7.99358 2.2021,31.03434 0.8327,50 -0.9311,12.89447 -0.8679,34.20937 0.1226,41.36699 1.5587,11.26356 9.6687,28.2216 13.7804,28.81488 3.232,0.46634 7.0588,6.61305 6.346,10.19305 -0.9188,4.61478 -5.7178,14.90443 -8.2456,17.6798 -1.2798,1.40509 -2.3269,3.03749 -2.3269,3.62755 0,0.59006 -0.675,1.63304 -1.5,2.31773 -1.8878,1.5668 -1.9623,5 -0.1084,5 0.7654,0 1.6798,1.14826 2.0321,2.5517 0.8436,3.36122 -0.4659,20.4483 -1.5671,20.4483 -0.4711,0 -0.8623,0.7875 -0.8692,1.75 -0.01,0.9625 -1.3513,4.38966 -2.9874,7.61591 -3.2711,6.45025 -3.2194,7.49293 0.3514,7.10095 5.2578,-0.57716 11.1855,-5.52037 13.5947,-11.33674 1.9975,-4.82232 11.397,-3.45953 12.3304,1.78771 1.3943,7.83912 -0.981,25.22114 -4.9991,36.58217 -1.3616,3.85 -2.8388,9.33709 -3.2826,12.19353 -0.4438,2.85644 -1.0986,5.66554 -1.4552,6.24244 -0.3565,0.57691 -1.2282,4.69354 -1.937,9.14807 -1.4166,8.90239 -0.7445,10.35922 3.7149,8.053 7.3835,-3.81842 13.1921,-0.85327 12.1655,6.21019 -0.412,2.83402 -0.8204,9.20277 -0.9076,14.15277 -0.1534,8.70354 -0.8363,11.25596 -4.6035,17.20452 -0.7679,1.21249 -1.0512,2.54946 -0.6296,2.97104 0.4216,0.42159 1.0979,0.23029 1.503,-0.42511 1.1257,-1.82149 7.7062,0.54297 9.1812,3.29892 0.9184,1.71615 0.9501,3.45586 0.1296,7.1113 -0.5974,2.66163 -1.361,7.98933 -1.6969,11.83933 -1.1581,13.27459 -8.3209,29.42252 -15.9686,36 -0.6395,0.55 -2.4318,3.01498 -3.9829,5.47774 -3.3572,5.33025 -4.2075,6.19228 -7.5751,7.67931 -2.0122,0.88853 -2.8295,2.30455 -3.7789,6.54715 -0.7607,3.39912 -2.317,6.62382 -4.1826,8.66633 -1.6341,1.7891 -2.9711,3.64438 -2.9711,4.12286 0,0.47847 -2.3523,3.0382 -5.2275,5.68828 -2.8751,2.65008 -8.6476,8.30583 -12.8277,12.56833 -4.1801,4.2625 -8.1077,7.75 -8.7281,7.75 -0.6203,0 -2.7856,1.125 -4.8118,2.5 -2.3031,1.56296 -5.084,2.5 -7.4192,2.5 -3.0444,0 -4.5735,0.80312 -8.2675,4.34251 -8.2202,7.8761 -13.0528,11.65749 -14.8982,11.65749 -1.001,0 -1.82,0.44769 -1.82,0.99488 0,4.19447 -16.3925,6.7114 -31.0589,4.76884 -5.4959,-0.72794 -5.6074,-0.6911 -9.8339,3.25 -2.3512,2.19245 -4.7996,3.98935 -5.441,3.99311 -0.6414,0.004 -2.2912,1.68969 -3.6662,3.74651 -1.375,2.05682 -4.3,5.42406 -6.5,7.48276 -7.9636,7.45215 -11.5634,11.00004 -17.7032,17.44778 -3.8844,4.07929 -11.1925,8.31612 -14.3445,8.31612 -0.8632,0 -3.2306,1.31501 -5.2609,2.92224 -3.1893,2.52477 -13.6283,8.06064 -23.6914,12.56363 -12.4357,5.56473 -15.0346,6.39655 -22.1676,7.0951 -4.3078,0.42187 -9.2583,0.80222 -11.0012,0.84522 -1.7429,0.043 -3.5054,0.4147 -3.9167,0.82599 -0.4113,0.4113 -1.0103,0.66671 -1.3311,0.56757 -0.3209,-0.0991 -2.8219,-0.35292 -5.558,-0.56396 z m 2.3145,-8.34315 c 16.5873,-3.02225 20.7403,-4.3081 38.72,-11.98834 15.1001,-6.45025 15.9955,-7.05926 15.6285,-10.63 -0.2731,-2.6573 0.2331,-3.35127 4.0957,-5.6149 3.4497,-2.02164 4.8011,-3.62547 6.2195,-7.38113 0.9967,-2.63905 4.6115,-9.07327 8.0328,-14.29827 3.4214,-5.225 7.0629,-11.02126 8.0922,-12.88059 2.1326,-3.85224 2.2359,-4.018 8.7131,-13.97897 6.4086,-9.85535 9.5977,-17.07397 10.7763,-24.39224 0.5381,-3.34104 1.7781,-7.23868 2.7556,-8.66141 2.417,-3.51799 3.8613,-7.68301 4.6083,-13.28976 0.3446,-2.58663 1.9297,-8.4261 3.5223,-12.97659 2.6457,-7.55919 2.7602,-8.42334 1.3265,-10.00758 -2.2615,-2.49893 -0.4207,-11.46697 3.384,-16.48594 1.323,-1.74519 2.5439,-4.22019 2.7131,-5.5 0.1693,-1.27981 0.5547,-3.00192 0.8565,-3.82692 0.3018,-0.825 0.8412,-2.82255 1.1987,-4.43901 0.3575,-1.61645 1.6326,-4.31022 2.8335,-5.98616 1.201,-1.67595 2.7133,-5.52839 3.3608,-8.561 0.6474,-3.03261 1.8675,-7.98883 2.7111,-11.01383 4.9736,-17.83299 6.6846,-25.19982 7.2001,-31 1.1017,-12.39723 0.8746,-14.2098 -2.5379,-20.25652 -3.5158,-6.22961 -3.83,-6.40528 -7.8502,-4.38953 -4.0804,2.04591 -11.0115,3.51175 -17.7004,3.7434 -3.3,0.11428 -6.9974,0.57228 -8.2166,1.01777 -4.9726,1.81709 -22.5208,1.69545 -28.0131,-0.19417 -5.8817,-2.02359 -5.9295,-1.99159 -3.6226,2.42476 0.9062,1.73486 2.3221,4.50429 3.1463,6.15429 0.8243,1.65 3.2328,5.63878 5.3523,8.86395 2.1196,3.22518 3.8537,6.78974 3.8537,7.92126 0,1.13152 0.7643,2.90183 1.6984,3.93402 0.9342,1.0322 1.8496,2.64263 2.0344,3.57874 0.1847,0.93612 0.7367,3.95203 1.2266,6.70203 1.2948,7.26829 1.3803,7.54673 3.9243,12.7799 1.6522,3.39855 3.284,5.18112 5.6465,6.16825 2.9059,1.21418 3.4194,1.99449 4.0928,6.2201 1.0337,6.48661 1.0913,6.32871 -5.6821,15.57565 -3.2675,4.46068 -5.9409,8.39553 -5.9409,8.74412 0,0.34859 -3.8392,3.96635 -8.5316,8.03947 -9.1889,7.97611 -13.6943,9.75153 -16.1666,6.37057 -1.2156,-1.66249 -1.5505,-1.62725 -6.0443,0.63594 -3.0038,1.51274 -6.2319,2.33077 -8.7575,2.21916 -25.3518,-1.12043 -26.7597,-1.57274 -30.6488,-9.84635 -3.112,-6.62066 0.2522,-10.4229 4.8599,-5.49262 1.2822,1.37198 3.7749,2.09543 8.8001,2.55401 12.6383,1.15332 23.479,-6.34861 28.4767,-19.70633 1.9815,-5.29576 5.0121,-9.45855 5.0121,-6.88431 0,0.61734 0.6269,1.12244 1.3931,1.12244 2.1449,0 2.6898,2.6682 1.5675,7.67602 -1.7502,7.80985 3.425,9.4285 8.0497,2.5177 1.3596,-2.03155 2.746,-3.91872 3.0811,-4.19372 4.0895,-3.35633 3.6143,-7.56011 -2.0914,-18.5 -2.75,-5.27279 -5.0288,-10.80484 -5.0642,-12.29345 -0.077,-3.23903 -2.1981,-12.75156 -3.5898,-16.09763 -0.547,-1.3151 -2.932,-3.42741 -5.3001,-4.69402 -4.0152,-2.14764 -6.1459,-4.54598 -7.6251,-8.58302 -0.3362,-0.91747 -1.8058,-2.17612 -3.266,-2.79702 -6.6501,-2.82782 -8.076,-5.93884 -10.2166,-22.29014 -0.6304,-4.81541 -1.5494,-9.00446 -2.0422,-9.30902 -0.4928,-0.30455 -0.8987,-1.53968 -0.9021,-2.74472 0,-1.20504 -0.6503,-3.42579 -1.4376,-4.93501 -0.7873,-1.50922 -2.6232,-6.23422 -4.0798,-10.5 -1.4565,-4.26578 -3.8459,-9.78097 -5.3097,-12.25597 -3.5014,-5.92018 -7.0763,-14.06202 -7.1266,-16.23095 -0.1139,-4.90932 -22.0402,0.27997 -22.0402,5.21625 0,0.55809 -0.675,1.0147 -1.5,1.0147 -0.825,0 -3.262,1.6875 -5.4156,3.75 -2.1537,2.0625 -4.8523,4.425 -5.997,5.25 -1.4443,1.04091 -2.2553,3.02625 -2.6498,6.48676 -0.3126,2.74272 -1.1778,6.34272 -1.9225,8 -0.7448,1.65728 -2.1115,6.1509 -3.0371,9.98581 -0.9256,3.83491 -2.5368,8.0581 -3.5804,9.38486 -1.0437,1.32676 -1.9015,2.9141 -1.9063,3.52743 -0.04,5.05029 -17.0589,18.19474 -21.9143,16.92501 -1.0849,-0.2837 -2.4053,0.29207 -3.21,1.39972 -3.1278,4.30556 -15.839,8.49851 -26.867,8.86239 -23.6886,0.78164 -34.2641,0.4972 -35.7221,-0.96077 -0.3361,-0.33616 -1.2674,-0.61121 -2.0695,-0.61121 -2.423,0 -13.2838,-5.15281 -20.4686,-9.71107 -3.7181,-2.35891 -7.6291,-4.28893 -8.691,-4.28893 -1.0619,0 -2.2131,-0.45682 -2.5581,-1.01515 -0.3451,-0.55833 -2.1216,-1.63947 -3.9478,-2.40252 -6.6812,-2.79156 -17.5429,-16.33903 -17.5429,-21.88071 0,-0.57428 -0.628,-1.75457 -1.3957,-2.62288 -0.7676,-0.86831 -2.1027,-3.60374 -2.9669,-6.07874 -0.8642,-2.475 -2.2243,-6.31204 -3.0225,-8.52675 -1.3313,-3.69422 -3.3894,-23.62264 -2.8631,-27.72325 0.3436,-2.6763 -2.2799,-2.08101 -3.6003,0.81695 -0.6433,1.41183 -1.83,6.96383 -2.6371,12.33777 -2.3265,15.48928 -8.3273,26.83432 -19.2369,36.36873 -6.9687,6.09031 -8.2041,7.6224 -8.2462,10.22655 -0.018,1.1 -0.872,4.25 -1.8984,7 -1.0264,2.75 -1.6638,5.56211 -1.4164,6.24913 0.4463,1.23988 -1.9614,8.45566 -4.4215,13.25087 -0.7055,1.375 -1.2854,3.0053 -1.2888,3.62288 -0.01,1.32677 -4.0178,10.64925 -4.8982,11.38579 -4.535,3.79417 -5.2123,5.66054 -3.6657,10.10174 0.8408,2.41427 1.5421,6.41459 1.5585,8.88959 0.022,3.27757 0.2932,4.09252 0.9992,3 0.8354,-1.29269 0.9715,-1.26629 0.9847,0.19098 0.01,0.93004 -0.4565,1.98261 -1.0332,2.33903 -0.6806,0.42062 -0.7097,1.05636 -0.083,1.81151 1.2687,1.52867 4.9608,10.93272 5.5346,14.09689 0.4601,2.5373 5.49,9.56151 6.8469,9.56156 0.4125,2e-5 0.75,0.61345 0.75,1.36319 0,2.00303 9.0008,10.07908 13.5612,12.168 2.1664,0.99228 4.6138,2.31927 5.4388,2.94886 0.825,0.6296 3.525,2.00869 6,3.06464 2.475,1.05596 5.0946,2.49039 5.8214,3.18763 0.7268,0.69724 2.1518,1.26771 3.1667,1.26771 1.0149,0 1.9952,0.41255 2.1786,0.91678 0.1833,0.50423 3.4833,2.41673 7.3333,4.25 7.5132,3.5776 9.7743,6.97661 5.5358,8.32185 -2.5173,0.79897 -7.9736,-0.25278 -10.0358,-1.93449 -0.825,-0.6728 -3.525,-2.21886 -6,-3.43568 -2.475,-1.21683 -5.625,-3.44861 -7,-4.9595 -1.375,-1.51089 -4.525,-3.59796 -7,-4.63793 -7.1353,-2.99815 -18.0003,-10.34263 -24.25,-16.3924 -5.5722,-5.39396 -5.75,-5.48156 -5.75,-2.83376 0,1.50275 -0.4117,3.51366 -0.9148,4.4687 -0.5032,0.95504 -1.6893,4.88643 -2.6358,8.73643 -0.9466,3.85 -2.5923,7.9635 -3.6572,9.14112 -1.9199,2.12308 -1.9154,2.18217 0.5344,7.01674 2.8574,5.63867 4.4807,11.18444 5.1183,17.48495 0.4823,4.76654 4.2302,30.70872 5.0359,34.85719 0.267,1.375 0.762,3.77493 1.1001,5.33319 0.5917,2.72773 11.2023,14.09558 20.003,21.43069 4.9685,4.14104 13.6786,8.48612 17.0111,8.48612 1.41,0 2.8011,0.61875 3.0913,1.375 0.2902,0.75625 1.267,1.37536 2.1707,1.37579 0.9036,4.3e-4 4.568,1.397 8.143,3.10349 5.9742,2.8517 13.5473,5.57435 18.5,6.65104 1.1,0.23913 6.6294,0.72951 12.2875,1.08973 9.6746,0.61593 10.3611,0.80388 11.5248,3.15495 0.9571,1.93357 2.4779,2.75369 6.7126,3.61969 8.4849,1.7352 17.5972,5.12385 27.4562,10.21033 4.9604,2.55919 10.8189,5.16263 13.0189,5.78543 2.2,0.62279 7.15,2.24913 11,3.61408 3.85,1.36495 10.15,3.51548 14,4.77895 3.85,1.26348 7.4618,2.64997 8.0262,3.08109 4.3254,3.30388 31.4566,10.13356 36.4738,9.18145 1.375,-0.26093 7.1529,-1.3222 12.8399,-2.35838 z m 6.0122,-66.92189 c -4.373,-1.09936 -9.3086,-5.38966 -10.8292,-9.4132 -1.8682,-4.94317 -0.6829,-5.80569 4.2156,-3.06786 4.878,2.7264 15.0867,4.39133 16.1707,2.6373 0.4177,-0.67577 2.3117,-0.87286 4.934,-0.51343 2.7889,0.38226 6.8246,-0.11072 11.7065,-1.42999 4.0977,-1.10736 8.1253,-2.04565 8.9503,-2.08511 15.0658,-0.72058 30,-8.548 30,-15.72376 0,-9.7819 -9.3851,-11.63526 -18.0484,-3.56417 -1.1655,1.08583 -4.2129,2.50146 -6.772,3.14585 -2.5591,0.64439 -5.1307,1.56811 -5.7146,2.05271 -2.1723,1.80282 -34.3916,0.67046 -44.465,-1.56274 -3.575,-0.79256 -9.0694,-1.70183 -12.2098,-2.02061 -5.107,-0.51842 -5.9252,-0.92812 -7.75,-3.88071 -3.3832,-5.47426 -2.9673,-5.84876 5.7098,-5.14156 4.2625,0.34739 13.7657,0.8505 21.1181,1.11802 7.3524,0.26751 13.7113,0.69853 14.1308,0.95781 1.747,1.07969 17.786,1.65784 18.4007,0.66328 0.3513,-0.56841 2.9926,-2.19041 5.8696,-3.60444 2.8769,-1.41403 7.2558,-3.65666 9.7308,-4.98362 17.0266,-9.12871 33,-10.39172 33,-2.60929 0,2.21456 -0.8366,3.15065 -4.5,5.03477 -4.5389,2.33447 -5.3375,3.36433 -3.4928,4.5044 3.0316,1.87366 6.2687,14.58907 4.0613,15.95329 -0.5877,0.36319 -1.086,1.42129 -1.1074,2.35133 -0.1003,4.3504 -10.4699,13.56557 -15.5943,13.85831 -2.6767,0.15291 -6.8918,0.94417 -9.3668,1.75837 -2.475,0.8142 -6.525,1.99535 -9,2.62479 -2.475,0.62944 -5.4,1.6433 -6.5,2.25301 -2.5133,1.3931 -27.7289,1.9239 -32.6479,0.68725 z m -45.1234,-30.83162 c -7.956,-3.14534 -6.576,-18.15913 1.6692,-18.15913 4.0278,0 7.6989,7.58608 4.5985,9.50227 -0.552,0.34116 -0.7364,1.68525 -0.4097,2.98684 1.2963,5.16514 -1.1488,7.53179 -5.858,5.67002 z m -27.104,-4.02134 c -3.7864,-4.18394 -4.0792,-9.83973 -0.9003,-17.38779 1.6334,-3.87824 3.4369,-4.66008 5.7668,-2.5 0.7415,0.6875 2.4481,2.15 3.7924,3.25 2.6144,2.13936 2.5335,3.35104 -0.5173,7.75412 -1.0496,1.51476 -1.8265,3.76476 -1.7266,5 0.3866,4.77743 -0.015,5.74588 -2.3847,5.74588 -1.2897,0 -3.1034,-0.83799 -4.0303,-1.86221 z m 74.3753,-16.52662 c 0,-1.92512 0.6983,-2.92613 2.5257,-3.62091 1.3891,-0.52814 2.7872,-1.642 3.107,-2.47525 0.3197,-0.83326 1.1531,-1.51501 1.8519,-1.51501 0.6988,0 1.8308,-0.675 2.5154,-1.5 1.2017,-1.44787 6.0824,-2.08431 7.2246,-0.94207 0.3069,0.30687 0.047,1.91254 -0.5782,3.56816 -2.5858,6.8504 -16.6464,12.32813 -16.6464,6.48508 z m 31.2986,-0.54511 c -6.1747,-3.81426 -8.5779,-14.66705 -5.3845,-24.31606 2.5005,-7.55537 6.1618,-2.78913 7.0407,9.16549 0.5452,7.41548 0.5452,7.41548 4.0452,8.58409 5.2689,1.75922 5.2627,6.67005 -0.01,7.94298 -1.6068,0.38792 -3.6254,-0.10029 -5.6914,-1.3765 z m 50.94,-6.59385 c -6.8392,-5.85408 -7.1854,-11.9262 -0.5952,-10.43988 6.7573,1.52401 12.3032,9.16394 9.0291,12.43811 -2.2779,2.27785 -3.8824,1.89771 -8.4339,-1.99823 z m -110.2853,-27.36559 c -14.0882,-4.56345 -26.0185,-26.89856 -18.4243,-34.4927 3.345,-3.34505 7.471,1.80039 7.471,9.31697 0,11.09449 6.2536,16.34682 18.9438,15.91074 7.0562,-0.24247 7.0562,-0.24247 7.1716,-3.29205 0.063,-1.67727 0.1759,-3.72369 0.25,-4.54761 0.2166,-2.40935 16.6096,-10.97737 22.2414,-11.62475 11.9369,-1.37214 15.5033,9.04115 3.8932,11.36765 -3.8707,0.77565 -7.9228,2.26379 -9.0644,3.32892 -1.1355,1.05942 -2.6076,1.92621 -3.2714,1.92621 -0.6639,0 -1.7245,1.13579 -2.357,2.52398 -1.2354,2.71137 -4.5593,4.03561 -7.9221,3.15621 -1.665,-0.4354 -1.9839,-0.16634 -1.5897,1.34109 1.2197,4.66439 -9.2047,7.72122 -17.3421,5.08534 z m 4.2712,-58.1624 c 2.0636,-3.41442 8.5566,-6.34581 10.6017,-4.78639 0.9206,0.70193 1.7989,1.34116 1.9518,1.42051 2.8506,1.47956 -2.3609,5.02353 -7.6971,5.23426 -5.9999,0.23695 -6.1045,0.19669 -4.8564,-1.86838 z M 85.166657,706.26693 c -0.3667,-0.36666 -0.9667,-0.36666 -1.3333,0 -0.3667,0.36667 -0.067,0.66667 0.6666,0.66667 0.7334,0 1.0334,-0.3 0.6667,-0.66667 z m 158.000003,-56 c -0.3667,-0.36666 -0.6667,-0.0667 -0.6667,0.66667 0,0.73333 0.3,1.03333 0.6667,0.66667 0.3667,-0.36667 0.3667,-0.96667 0,-1.33334 z m -151.000003,-42 c -0.3667,-0.36666 -0.6667,-0.0667 -0.6667,0.66667 0,0.73333 0.3,1.03333 0.6667,0.66667 0.3667,-0.36667 0.3667,-0.96667 0,-1.33334 z M 254.48466,593.6836 c -0.012,-1.75671 -0.2167,-1.9316 -0.934,-0.79775 -0.5053,0.79874 -0.6968,1.81124 -0.4257,2.25 0.8674,1.40343 1.3755,0.86078 1.3597,-1.45225 z m 152.5153,-68.91398 c 5.2588,-1.26537 18.5774,-7.87401 19.2144,-9.53412 0.2748,-0.71604 0.9661,-1.3019 1.5363,-1.3019 0.9994,0 5.3891,-3.79035 10.4231,-9 10.084,-10.43594 21.8788,-36.30784 21.5809,-47.33785 -0.1441,-5.33618 0.2341,-7.42248 1.7222,-9.5 3.4884,-4.87022 5.3061,-12.39748 4.0871,-16.92479 -1.7003,-6.3142 -3.4419,-6.92208 -20.564,-7.17749 -8.25,-0.12307 -15.9,-0.26711 -17,-0.3201 -10.6687,-0.51389 -14.1743,0.79194 -20.4023,7.59976 -7.7304,8.45014 -22.8847,15.88046 -34.8894,17.10663 -2.9104,0.29727 -7.6354,1.25594 -10.5,2.13037 -8.119,2.4784 -17.7526,5.20657 -22.9583,6.50166 -5.53,1.37581 -5.7221,2.1695 -3.3054,13.65809 4.3501,20.67976 13.1734,36.08049 25.0554,43.73319 17.6979,11.39845 30.098,14.19293 46,10.36655 z m -3.2768,-38.37824 c -3.6403,-2.09197 -5.5752,-2.45955 -13,-2.46965 -14.1437,-0.0192 -24.6098,-3.93234 -22.8416,-8.54012 0.6895,-1.79678 2.6925,-1.78266 18.7193,0.13192 5.0584,0.60428 5.6514,0.47536 6.1239,-1.3313 0.3515,-1.34429 1.6304,-2.17306 3.8992,-2.52687 3.7848,-0.59023 19.2518,-4.77063 25.376,-6.8586 4,-1.36375 4,-1.36375 4.5,-9.86345 0.569,-9.67245 1.8555,-10.82185 5.7102,-5.10183 2.5133,3.72952 3.3924,15.10212 1.1674,15.10212 -0.7799,0 -0.7458,0.45385 0.1117,1.48701 2.5873,3.11761 -1.6518,8.51299 -6.6886,8.51299 -0.7154,0 -1.3007,0.35134 -1.3007,0.78076 0,0.42942 -1.35,1.29033 -3,1.91314 -2.4451,0.92292 -3,1.70606 -3,4.23393 0,6.39958 -8.351,8.79738 -15.7768,4.52995 z m 183.9738,31.96747 c 3.1333,-0.79889 8.9706,-3.02139 12.9718,-4.93889 4.0012,-1.9175 7.85,-3.48636 8.553,-3.48636 0.703,0 1.2782,-0.3596 1.2782,-0.79911 0,-0.43951 1.4815,-1.33481 3.2921,-1.98955 3.9986,-1.4459 10.3176,-7.54504 13.7079,-13.23088 1.375,-2.30599 3.6589,-5.38246 5.0752,-6.83659 2.8735,-2.95022 5.9248,-15.88134 5.9248,-25.10865 0,-2.80807 0.6314,-6.10225 1.403,-7.3204 1.4881,-2.34928 -0.044,-16.3063 -2.2401,-20.41066 -0.531,-0.99229 -1.2837,-3.92685 -1.6728,-6.52124 -0.4996,-3.33231 -1.255,-4.89093 -2.5731,-5.30928 -4.3403,-1.37754 -53.5686,-0.0917 -59.9421,1.56567 -1.9389,0.50418 -5.198,0.8538 -7.2425,0.77694 -2.3079,-0.0868 -4.4547,0.5275 -5.6619,1.61996 -1.0694,0.96784 -2.4079,1.47328 -2.9743,1.1232 -1.6672,-1.03036 -12.9699,5.40853 -15.6407,8.91011 -2.5554,3.35028 -2.589,3.74129 -2.1391,24.84854 0.046,2.18331 -0.4898,4.17112 -1.2528,4.64266 -1.9829,1.22552 6.2114,22.71897 9.1014,23.87261 0.4593,0.18334 0.8401,0.85834 0.8463,1.5 0.018,1.85886 8.276,15.23654 11.7876,19.09559 1.7606,1.93478 3.2011,3.92467 3.2011,4.42199 0,4.33632 13.4284,6.31994 24.197,3.57434 z m -2.197,-36.12896 c -0.825,-0.30019 -2.7098,-1.67241 -4.1886,-3.04936 -1.927,-1.79431 -3.4307,-2.36169 -5.3081,-2.00281 -3.914,0.74821 -10.3159,-4.80277 -9.5041,-8.24088 0.5383,-2.27981 1.107,-2.51773 6.5452,-2.73816 15.5562,-0.63056 37.2512,-6.49709 36.5941,-9.89542 -1.0409,-5.38337 -1.2154,-12.69273 -0.3243,-13.58383 4.2761,-4.27612 12.752,14.70813 8.6174,19.30123 -4.4339,4.9256 -11.3334,8.73594 -18.7883,10.37611 -2.5105,0.55235 -2.8032,0.99351 -2.4148,3.63974 0.7263,4.94882 -5.385,8.31968 -11.2285,6.19338 z m -83.3926,-39.1842 c 3.2789,-1.58834 6.5601,-3.60899 7.2916,-4.49033 0.8455,-1.01879 2.1663,-1.3925 3.6263,-1.02606 2.6995,0.67751 3.8037,-8.78111 2.0902,-17.90282 -1.0818,-5.75883 1.3865,-8.48947 11.5115,-12.73448 3.225,-1.35212 5.7015,-2.9084 5.5035,-3.4584 -0.493,-1.36875 1.2094,-4.5 2.4465,-4.5 3.353,0 5.2607,-3.90603 2.8579,-5.85169 -3.2242,-2.61074 -1.1362,-5.57108 3.2498,-4.60775 1.5763,0.34621 4.3171,0.7787 6.0907,0.96109 4.4024,0.45273 9.4721,2.10288 12.4448,4.05063 1.8486,1.21124 3.905,1.48713 8.1273,1.09037 20.5652,-1.93244 54.3907,-0.14576 60.9711,3.22053 7.5637,3.86928 8.5656,1.12387 4.799,-13.14941 -0.8398,-3.18243 -1.2923,-6.39776 -1.0055,-7.14518 0.9916,-2.58407 -5.0256,-19.47006 -7.4781,-20.98581 -0.4728,-0.29219 -1.4398,-2.68035 -2.1488,-5.30702 -0.7091,-2.62667 -1.8958,-5.48619 -2.6372,-6.3545 -0.7414,-0.86831 -1.348,-2.19543 -1.348,-2.94916 0,-0.75373 -1.3394,-2.74329 -2.9766,-4.42126 -3.5073,-3.59478 -18.9816,-24.37672 -19.7698,-26.55084 -0.2991,-0.825 -1.402,-2.4 -2.451,-3.5 -1.0489,-1.1 -5.2822,-7.16298 -9.4071,-13.47329 -4.125,-6.31032 -7.814,-11.71032 -8.1977,-12 -0.3838,-0.28969 -1.1799,-1.39993 -1.7692,-2.46719 -1.7156,-3.10708 -3.4286,-3.05354 -3.4283,0.10715 4e-4,4.69398 -8.1635,32.37357 -11.2413,38.11375 -0.9674,1.80423 -1.759,4.54957 -1.759,6.10077 0,9.29918 -15.7313,31.11881 -22.4357,31.11881 -1.1904,0 -2.5918,0.40759 -3.1143,0.90576 -1.6563,1.57919 -8.4567,5.09424 -9.8555,5.09424 -0.7396,0 -4.8884,1.60668 -9.2196,3.57039 -11.0079,4.99088 -10.2891,4.61357 -26.8749,14.10669 -2.2,1.25921 -5.125,2.77638 -6.5,3.3715 -1.375,0.59512 -5.6754,2.62764 -9.5565,4.51673 -3.8811,1.88908 -7.7635,3.43469 -8.6276,3.43469 -0.864,0 -2.1312,0.675 -2.8159,1.5 -0.6846,0.825 -2.2826,1.5 -3.551,1.5 -2.2035,0 -5.449,2.31539 -5.449,3.88741 0,0.85102 9.8698,5.11259 11.8408,5.11259 0.7162,0 1.9771,0.675 2.8021,1.5 0.825,0.825 2.5248,1.5 3.7774,1.5 2.5225,0 11.1744,8.12302 12.217,11.47024 0.3478,1.11637 1.0717,2.31222 1.6086,2.65745 1.0539,0.67752 1.2912,13.38642 0.3456,18.50516 -1.3562,7.34144 9.8428,10.40712 20.0159,5.47924 z m 150.0593,-260.77876 c -0.3667,-0.36666 -0.9667,-0.36666 -1.3333,0 -0.3667,0.36667 -0.067,0.66667 0.6666,0.66667 0.7334,0 1.0334,-0.3 0.6667,-0.66667 z m -507,-29 c -0.3667,-0.36666 -0.9667,-0.36666 -1.3333,0 -0.3667,0.36667 -0.067,0.66667 0.6666,0.66667 0.7334,0 1.0334,-0.3 0.6667,-0.66667 z"
       id="path3050"
       inkscape:connector-curvature="0" />
  </g>
</svg>
